<svg xmlns="http://www.w3.org/2000/svg" width="752" height="391" viewBox="0 0 752 391">
    <g fill="#4599D4" fill-rule="evenodd" opacity=".248">
        <path d="M156.999 192.002c-12.737-.03-23.264 9.851-23.923 22.462l-.639 13.709c-.973 6.915-4.368 13.271-9.59 17.955l-2.907 2.6c-4.67 4.19-10.55 6.81-16.808 7.485-6.182.7-13.283 1.432-14.41 1.497-13.144 1.192-22.823 12.723-21.621 25.754 1.202 13.027 12.829 22.628 25.972 21.436 12.248-1.11 21.644-11.257 21.72-23.448l.84-11.07c.505-7.596 3.928-14.711 9.56-19.882l2.736-2.432c4.04-3.616 9.003-6.065 14.349-7.084l15.366-1.324c11.593-.16 21.153-8.433 23.264-19.293.044-1.114.092-2.221.092-3.346.003-2.14-.089-4.26-.226-6.37-2.41-10.792-12.186-18.798-23.775-18.649" opacity=".298" transform="translate(-77)"/>
        <path d="M90.644 240.659c11.592-.16 21.153-8.433 23.267-19.29.04-1.113.089-2.224.089-3.345.006-2.144-.09-4.26-.226-6.37-2.411-10.796-12.186-18.801-23.775-18.652-12.737-.03-23.264 9.851-23.923 22.465l-.639 13.708c-.973 6.915-4.368 13.272-9.59 17.955l-2.907 2.6c-4.67 4.19-10.551 6.807-16.808 7.485-6.182.697-13.283 1.432-14.41 1.496C8.577 259.903-1.102 271.431.1 284.465c1.202 13.027 12.829 22.624 25.972 21.435 12.248-1.114 21.644-11.256 21.72-23.45l.84-11.067c.509-7.596 3.928-14.71 9.56-19.885l2.736-2.431c4.04-3.613 9.006-6.062 14.348-7.081l15.367-1.327z" opacity=".047" transform="translate(-77)"/>
        <path d="M148.798 65.33c-13.127.547-23.325 11.657-22.777 24.815.545 13.158 11.628 23.38 24.752 22.834l.067-.068c13.07.024 23.683-10.578 23.707-23.678l.832-11.114c.561-7.621 4.038-14.727 9.704-19.84l2.743-2.468c3.98-3.594 8.855-6.042 14.11-7.09l15.248-1.295c13.063-.468 23.27-11.462 22.8-24.553C239.518 9.78 228.55-.452 215.486.015c-12.145.438-21.988 10.03-22.766 22.19l-.599 13.552c-.95 6.93-4.312 13.297-9.497 17.979l-2.912 2.634c-4.614 4.187-10.428 6.808-16.61 7.496-6.123.665-13.155 1.431-14.304 1.465" opacity=".199" transform="translate(-77)"/>
        <path d="M306.774 84.654c-2.41-10.796-12.19-18.801-23.775-18.652-12.74-.03-23.262 9.851-23.922 22.465l-.642 13.708c-.973 6.915-4.368 13.271-9.59 17.955l-2.907 2.6c-4.665 4.19-10.55 6.807-16.807 7.484-6.179.701-13.283 1.43-14.41 1.497-13.143 1.192-22.822 12.72-21.62 25.75 1.202 13.03 12.832 22.631 25.975 21.439 12.244-1.114 21.643-11.256 21.718-23.45l.837-11.067c.51-7.596 3.931-14.71 9.564-19.882l2.732-2.434c4.044-3.614 9.007-6.062 14.352-7.081l15.366-1.328c11.592-.159 21.152-8.428 23.263-19.288.04-1.115.088-2.225.092-3.346.003-2.14-.089-4.26-.226-6.37" opacity=".047" transform="translate(-77)"/>
        <path d="M215.644 119.659c11.593-.16 21.153-8.433 23.267-19.29.041-1.113.089-2.224.089-3.345.003-2.144-.089-4.26-.226-6.37-2.41-10.796-12.186-18.801-23.775-18.652-12.737-.03-23.264 9.851-23.923 22.465l-.639 13.708c-.973 6.915-4.368 13.272-9.59 17.955l-2.907 2.6c-4.67 4.19-10.55 6.807-16.808 7.485-6.182.697-13.283 1.432-14.41 1.496-13.144 1.192-22.823 12.72-21.621 25.754 1.202 13.027 12.829 22.624 25.972 21.435 12.248-1.114 21.644-11.256 21.72-23.45l.84-11.067c.505-7.596 3.928-14.71 9.56-19.885l2.736-2.431c4.04-3.613 9.007-6.062 14.349-7.081l15.366-1.327z" opacity=".047" transform="translate(-77)"/>
        <path d="M79.72 65.713C66.579 66.905 56.9 78.433 58.1 91.463c1.2 13.032 12.83 22.629 25.972 21.437 12.248-1.11 21.644-11.257 21.72-23.448l.84-11.067c.505-7.596 3.927-14.71 9.56-19.885l2.735-2.432c4.044-3.613 9.007-6.065 14.352-7.08l15.363-1.328c11.592-.16 21.155-8.433 23.266-19.29.04-1.114.088-2.224.092-3.345.003-2.144-.089-4.264-.226-6.37C169.364 7.859 159.581-.147 147.996.002c-12.736-.03-23.26 9.851-23.922 22.466l-.639 13.705c-.973 6.918-4.368 13.275-9.59 17.958l-2.907 2.601c-4.669 4.186-10.55 6.807-16.807 7.484-6.182.698-13.283 1.43-14.41 1.497" opacity=".283" transform="translate(-77)"/>
        <path d="M227.775 439.979l.068-.068c13.069.024 23.682-10.578 23.706-23.675l.832-11.114c.558-7.622 4.038-14.729 9.703-19.841l2.743-2.469c3.981-3.594 8.855-6.045 14.108-7.092l15.25-1.292c13.062-.471 23.27-11.463 22.8-24.557-.47-13.09-11.436-23.327-24.498-22.855-12.145.437-21.988 10.029-22.766 22.19l-.598 13.552c-.95 6.93-4.313 13.297-9.498 17.976l-2.912 2.638c-4.616 4.187-10.427 6.808-16.61 7.493-6.121.668-13.153 1.434-14.303 1.464-13.126.55-23.324 11.66-22.78 24.819.545 13.155 11.629 23.38 24.755 22.83" opacity=".298" transform="translate(-77)"/>
        <path d="M352.8 268.33c-13.126.549-23.324 11.656-22.78 24.814.545 13.159 11.629 23.381 24.755 22.835l.068-.068c13.069.024 23.682-10.578 23.706-23.679l.832-11.114c.558-7.618 4.038-14.728 9.703-19.84l2.743-2.469c3.981-3.594 8.855-6.042 14.108-7.09l15.25-1.294c13.059-.468 23.266-11.464 22.8-24.554-.47-13.094-11.436-23.327-24.498-22.855-12.149.437-21.988 10.029-22.765 22.187l-.6 13.555c-.95 6.927-4.311 13.297-9.496 17.976l-2.912 2.638c-4.617 4.184-10.428 6.808-16.61 7.493-6.122.668-13.154 1.434-14.304 1.465" opacity=".046" transform="translate(-77)"/>
        <path d="M420.642 316.66c11.595-.16 21.152-8.433 23.266-19.293.04-1.11.088-2.221.092-3.342.003-2.144-.092-4.264-.226-6.37-2.41-10.796-12.19-18.802-23.775-18.653-12.74-.03-23.266 9.851-23.922 22.466l-.642 13.705c-.973 6.915-4.368 13.271-9.59 17.958l-2.907 2.601c-4.665 4.19-10.55 6.807-16.807 7.484-6.182.698-13.283 1.433-14.41 1.497-13.143 1.192-22.822 12.72-21.62 25.75 1.202 13.032 12.832 22.629 25.971 21.437 12.248-1.11 21.644-11.257 21.722-23.448l.837-11.067c.51-7.596 3.928-14.71 9.564-19.885l2.732-2.432c4.044-3.613 9.007-6.065 14.352-7.08l15.363-1.328z" opacity=".046" transform="translate(-77)"/>
        <path d="M227.642 374.66c11.595-.16 21.152-8.433 23.266-19.293.04-1.11.088-2.221.092-3.342.003-2.144-.092-4.264-.226-6.37-2.41-10.796-12.19-18.802-23.775-18.653-12.74-.03-23.266 9.851-23.922 22.466l-.642 13.705c-.973 6.915-4.368 13.271-9.59 17.958l-2.907 2.601c-4.665 4.19-10.55 6.807-16.807 7.484-6.182.698-13.283 1.433-14.41 1.497-13.143 1.192-22.822 12.72-21.62 25.75 1.202 13.032 12.832 22.629 25.971 21.437 12.248-1.11 21.647-11.257 21.722-23.448l.837-11.067c.51-7.596 3.928-14.71 9.564-19.885l2.732-2.432c4.044-3.613 9.007-6.065 14.352-7.08l15.363-1.328z" opacity=".199" transform="translate(-77)"/>
        <path d="M227.642 308.66c11.595-.16 21.152-8.433 23.266-19.293.04-1.11.088-2.221.092-3.342.003-2.144-.092-4.264-.229-6.37-2.408-10.796-12.186-18.802-23.772-18.653-12.74-.03-23.266 9.851-23.925 22.466l-.639 13.705c-.973 6.918-4.368 13.271-9.59 17.958l-2.907 2.601c-4.669 4.19-10.55 6.807-16.807 7.484-6.182.698-13.283 1.433-14.41 1.497-13.143 1.192-22.822 12.72-21.62 25.75 1.202 13.032 12.832 22.629 25.971 21.437 12.248-1.11 21.644-11.257 21.722-23.448l.837-11.067c.51-7.596 3.928-14.71 9.564-19.885l2.732-2.432c4.044-3.613 9.007-6.065 14.352-7.08l15.363-1.328z" opacity=".283" transform="translate(-77)"/>
        <path d="M217.775 247.98l.068-.069c13.069.024 23.682-10.578 23.706-23.679l.832-11.11c.558-7.622 4.038-14.732 9.703-19.841l2.743-2.468c3.981-3.594 8.855-6.046 14.108-7.093l15.25-1.292c13.059-.471 23.266-11.463 22.8-24.557-.47-13.09-11.436-23.327-24.498-22.855-12.145.437-21.988 10.029-22.765 22.19l-.6 13.552c-.95 6.93-4.311 13.297-9.496 17.976l-2.912 2.638c-4.617 4.187-10.428 6.808-16.61 7.493-6.122.668-13.154 1.434-14.304 1.465-13.126.545-23.324 11.656-22.78 24.814.545 13.159 11.629 23.381 24.755 22.835" opacity=".101" transform="translate(-77)"/>
        <path d="M285.723 268.71c-13.142 1.192-22.821 12.723-21.623 25.75 1.203 13.035 12.832 22.632 25.974 21.44 12.248-1.11 21.644-11.257 21.719-23.451l.84-11.064c.505-7.596 3.928-14.714 9.56-19.885l2.735-2.435c4.044-3.613 9.003-6.062 14.352-7.081l15.362-1.328c11.592-.155 21.152-8.428 23.266-19.289.037-1.11.088-2.225.092-3.346.003-2.14-.092-4.26-.229-6.37-2.408-10.792-12.19-18.801-23.774-18.649-12.736-.034-23.263 9.848-23.922 22.463l-.638 13.708c-.974 6.915-4.369 13.271-9.59 17.955l-2.907 2.6c-4.67 4.19-10.55 6.808-16.81 7.485-6.18.7-13.28 1.432-14.407 1.497" opacity=".298" transform="translate(-77)"/>
        <path d="M354 132.002c-12.737-.03-23.264 9.851-23.923 22.466l-.638 13.705c-.974 6.918-4.369 13.271-9.595 17.955l-2.906 2.6c-4.666 4.19-10.547 6.81-16.808 7.485-6.182.7-13.283 1.432-14.41 1.5-13.139 1.189-22.818 12.72-21.62 25.75 1.203 13.032 12.832 22.629 25.975 21.437 12.248-1.11 21.644-11.257 21.72-23.448l.84-11.067c.505-7.596 3.927-14.71 9.56-19.885l2.735-2.432c4.04-3.616 9.003-6.065 14.349-7.084l15.362-1.324c11.596-.16 21.156-8.433 23.267-19.293.04-1.11.088-2.221.092-3.342.003-2.144-.089-4.264-.226-6.374-2.41-10.792-12.19-18.798-23.775-18.649" opacity=".199" transform="translate(-77)"/>
        <path d="M102.999 381.002c-12.737-.03-23.264 9.851-23.923 22.466l-.639 13.705c-.973 6.915-4.368 13.271-9.59 17.955l-2.907 2.6c-4.67 4.19-10.55 6.81-16.808 7.485-6.182.7-13.283 1.432-14.41 1.497-13.144 1.192-22.823 12.723-21.621 25.754 1.202 13.03 12.829 22.628 25.972 21.436 12.248-1.11 21.644-11.257 21.72-23.448l.84-11.067c.505-7.596 3.928-14.71 9.56-19.885l2.736-2.432c4.04-3.616 9.003-6.065 14.349-7.084l15.366-1.324c11.593-.16 21.153-8.433 23.264-19.293.044-1.11.092-2.221.092-3.342.003-2.144-.089-4.264-.226-6.374-2.41-10.792-12.186-18.798-23.775-18.649" opacity=".047" transform="translate(-77)"/>
        <path d="M804.999 95.002c-12.737-.03-23.264 9.851-23.923 22.466l-.639 13.705c-.973 6.915-4.368 13.271-9.59 17.955l-2.907 2.6c-4.67 4.19-10.55 6.81-16.808 7.485-6.182.7-13.283 1.432-14.41 1.497-13.144 1.192-22.823 12.723-21.621 25.754 1.202 13.03 12.829 22.628 25.972 21.436 12.248-1.11 21.644-11.257 21.72-23.448l.84-11.067c.505-7.596 3.928-14.71 9.56-19.885l2.736-2.432c4.04-3.616 9.003-6.065 14.349-7.084l15.366-1.324c11.593-.16 21.153-8.433 23.264-19.293.044-1.11.092-2.221.092-3.342.003-2.144-.089-4.264-.226-6.374-2.41-10.792-12.186-18.798-23.775-18.649" opacity=".199" transform="translate(-77)"/>
        <path d="M734.644 142.66c11.592-.16 21.153-8.433 23.267-19.293.04-1.11.089-2.221.089-3.342.006-2.144-.09-4.264-.226-6.37-2.411-10.796-12.186-18.802-23.775-18.653-12.737-.03-23.264 9.851-23.923 22.466l-.639 13.705c-.973 6.915-4.368 13.271-9.59 17.958l-2.907 2.601c-4.67 4.19-10.551 6.807-16.808 7.484-6.182.698-13.283 1.43-14.41 1.497-13.144 1.192-22.823 12.72-21.621 25.75 1.202 13.032 12.829 22.629 25.972 21.437 12.248-1.11 21.644-11.257 21.72-23.448l.84-11.067c.509-7.596 3.928-14.71 9.56-19.885l2.736-2.432c4.04-3.613 9.006-6.065 14.348-7.08l15.367-1.328zM421.775 384.98l.071-.069c13.066.024 23.68-10.578 23.703-23.679l.832-11.114c.558-7.618 4.038-14.728 9.703-19.837l2.743-2.468c3.981-3.594 8.855-6.046 14.108-7.093l15.25-1.292c13.062-.471 23.27-11.467 22.8-24.557-.47-13.09-11.436-23.327-24.498-22.855-12.145.437-21.988 10.029-22.766 22.19l-.598 13.552c-.95 6.93-4.313 13.297-9.498 17.976l-2.912 2.638c-4.616 4.187-10.427 6.808-16.61 7.493-6.121.668-13.153 1.434-14.303 1.465-13.126.545-23.324 11.656-22.78 24.814.549 13.159 11.632 23.381 24.755 22.835M553.999 340.002c-12.737-.03-23.264 9.851-23.923 22.462l-.639 13.709c-.973 6.915-4.368 13.271-9.594 17.955l-2.907 2.6c-4.665 4.19-10.547 6.81-16.808 7.485-6.178.7-13.283 1.432-14.407 1.497-13.143 1.192-22.822 12.723-21.62 25.754 1.199 13.027 12.829 22.628 25.972 21.436 12.248-1.11 21.644-11.257 21.72-23.448l.84-11.067c.505-7.596 3.928-14.714 9.56-19.885l2.736-2.432c4.04-3.616 9.003-6.065 14.349-7.084l15.363-1.324c11.596-.16 21.156-8.433 23.267-19.293.04-1.114.092-2.221.092-3.342.003-2.144-.089-4.264-.226-6.374-2.41-10.792-12.19-18.798-23.775-18.649" opacity=".298" transform="translate(-77)"/>
        <path d="M485.644 387.66c11.593-.16 21.153-8.433 23.267-19.293.041-1.11.089-2.221.089-3.342.003-2.144-.089-4.264-.226-6.37-2.41-10.796-12.19-18.802-23.775-18.653-12.737-.03-23.264 9.851-23.923 22.466l-.639 13.705c-.973 6.915-4.368 13.271-9.59 17.958l-2.907 2.601c-4.67 4.19-10.55 6.807-16.812 7.484-6.178.698-13.283 1.43-14.407 1.497-13.143 1.192-22.822 12.72-21.62 25.75 1.199 13.032 12.829 22.629 25.972 21.437 12.248-1.11 21.644-11.257 21.72-23.448l.84-11.067c.505-7.596 3.928-14.71 9.56-19.885l2.736-2.432c4.04-3.613 9.007-6.065 14.349-7.08l15.366-1.328z" opacity=".101" transform="translate(-77)"/>
        <path d="M546.8 212.33c-13.126.547-23.324 11.657-22.78 24.815.545 13.158 11.629 23.38 24.755 22.834l.068-.068c13.069.024 23.682-10.578 23.706-23.678l.832-11.114c.558-7.621 4.038-14.727 9.703-19.84l2.743-2.468c3.981-3.594 8.855-6.042 14.108-7.09l15.25-1.295c13.062-.468 23.27-11.462 22.8-24.553-.47-13.093-11.436-23.325-24.498-22.858-12.149.438-21.988 10.03-22.766 22.19l-.598 13.555c-.95 6.927-4.313 13.294-9.498 17.976l-2.912 2.638c-4.616 4.183-10.427 6.804-16.61 7.492-6.121.668-13.153 1.434-14.303 1.465" opacity=".298" transform="translate(-77)"/>
        <path d="M703.774 235.651c-2.41-10.796-12.19-18.801-23.775-18.649-12.74-.034-23.262 9.848-23.925 22.463l-.639 13.708c-.973 6.915-4.368 13.271-9.59 17.955l-2.907 2.6c-4.665 4.19-10.55 6.808-16.807 7.485-6.179.7-13.283 1.429-14.41 1.497-13.143 1.192-22.822 12.72-21.62 25.75 1.202 13.031 12.832 22.632 25.971 21.44 12.248-1.114 21.644-11.257 21.722-23.451l.837-11.067c.51-7.593 3.928-14.711 9.564-19.882l2.732-2.435c4.044-3.613 9.007-6.062 14.352-7.081l15.363-1.328c11.595-.155 21.152-8.428 23.266-19.289.04-1.114.088-2.225.092-3.346.003-2.14-.089-4.26-.226-6.37" opacity=".046" transform="translate(-77)"/>
        <path d="M614.642 264.66c11.595-.16 21.152-8.433 23.266-19.293.04-1.11.088-2.221.092-3.342.003-2.144-.092-4.264-.226-6.37-2.41-10.796-12.19-18.802-23.775-18.653-12.74-.03-23.266 9.851-23.922 22.466l-.642 13.705c-.973 6.915-4.368 13.271-9.59 17.958l-2.907 2.598c-4.665 4.192-10.55 6.81-16.807 7.487-6.182.698-13.283 1.43-14.41 1.497-13.143 1.192-22.822 12.72-21.62 25.75 1.202 13.032 12.832 22.629 25.971 21.437 12.248-1.11 21.647-11.257 21.722-23.448l.837-11.067c.51-7.596 3.928-14.71 9.564-19.885l2.732-2.432c4.044-3.613 9.007-6.065 14.352-7.08l15.363-1.328z" opacity=".199" transform="translate(-77)"/>
        <path d="M617.776 396.979l.068-.068c13.069.024 23.683-10.578 23.706-23.675l.832-11.114c.558-7.622 4.035-14.729 9.704-19.841l2.743-2.469c3.978-3.594 8.855-6.045 14.108-7.092l15.25-1.292c13.06-.471 23.268-11.463 22.797-24.557-.466-13.09-11.432-23.327-24.494-22.855-12.146.437-21.989 10.029-22.767 22.19l-.598 13.552c-.95 6.93-4.316 13.297-9.498 17.976l-2.912 2.638c-4.617 4.187-10.428 6.808-16.614 7.493-6.119.668-13.154 1.434-14.3 1.464-13.127.55-23.325 11.657-22.78 24.815.544 13.159 11.628 23.384 24.755 22.835" opacity=".283" transform="translate(-77)"/>
        <path d="M751.999 280.002c-12.737-.03-23.264 9.851-23.923 22.466l-.639 13.705c-.973 6.918-4.368 13.275-9.59 17.955l-2.907 2.6c-4.67 4.19-10.55 6.81-16.808 7.485-6.182.7-13.283 1.432-14.41 1.5-13.144 1.189-22.823 12.72-21.621 25.75 1.202 13.032 12.829 22.629 25.972 21.437 12.248-1.11 21.644-11.257 21.72-23.448l.84-11.067c.505-7.596 3.928-14.71 9.56-19.885l2.736-2.432c4.04-3.613 9.003-6.065 14.349-7.084l15.366-1.324c11.593-.16 21.153-8.433 23.264-19.293.044-1.11.092-2.221.092-3.342.003-2.144-.089-4.264-.226-6.37-2.41-10.796-12.19-18.802-23.775-18.653" opacity=".101" transform="translate(-77)"/>
    </g>
</svg>
